<svg xmlns="http://www.w3.org/2000/svg" width="1024" height="1024" viewBox="0 0 1024 1024">
<g>
<path d="M 514.32 543.58 C512.02,544.91 510.00,545.97 509.82,545.92 C509.64,545.88 507.58,544.32 505.22,542.46 C500.45,538.68 495.57,537.01 489.27,537.01 C485.22,537.00 485.07,536.89 485.53,534.25 C487.37,523.75 487.99,517.18 488.01,508.00 C488.04,498.02 488.18,497.28 491.02,493.10 L 494.00 488.70 L 494.00 473.26 C494.00,458.65 494.11,457.78 496.00,457.29 C497.93,456.78 498.00,455.91 498.03,431.13 C498.06,410.18 498.33,405.15 499.53,403.56 C500.52,402.25 501.02,399.00 501.07,393.56 C501.11,389.13 501.60,383.02 502.15,380.00 C503.62,371.96 505.03,357.13 505.57,344.00 C505.83,337.67 506.49,331.60 507.03,330.50 C507.57,329.40 508.35,324.04 508.76,318.59 C509.37,310.36 509.79,308.64 511.21,308.44 C514.85,307.91 515.20,310.33 516.16,343.20 C516.38,350.81 516.94,355.34 517.75,356.15 C518.56,356.96 519.00,360.47 519.00,366.07 C519.00,373.35 519.33,375.16 521.09,377.39 C523.12,379.96 523.18,380.92 522.84,404.98 C522.53,427.42 522.67,430.04 524.18,431.21 C525.63,432.32 525.91,435.13 526.18,451.79 C526.43,467.10 526.79,471.25 527.92,471.95 C529.70,473.05 530.78,479.70 532.07,497.50 C532.76,506.91 533.53,511.83 534.41,512.51 C535.15,513.08 536.03,516.63 536.41,520.51 C536.77,524.36 537.25,528.85 537.46,530.50 C537.67,532.15 537.88,534.22 537.92,535.10 C537.97,535.98 539.01,537.18 540.25,537.78 C542.14,538.69 541.54,538.88 536.43,538.93 C527.58,539.03 519.08,540.82 514.32,543.58 ZM 347.99 650.75 L 348.00 653.00 L 327.17 653.00 C315.71,653.00 306.03,652.70 305.67,652.33 C304.06,650.73 305.30,648.96 309.25,647.21 C311.14,646.37 312.54,645.86 313.58,644.95 C316.69,642.21 316.55,635.77 316.80,605.52 C317.07,571.76 316.97,569.18 315.27,567.09 C314.27,565.85 311.89,564.52 309.98,564.13 C305.35,563.19 304.51,559.56 308.70,558.64 C314.72,557.34 358.46,556.74 364.50,557.89 C381.05,561.02 388.61,574.49 383.49,591.72 C381.67,597.84 374.42,606.36 369.52,608.13 L 366.14 609.35 L 369.82 613.54 C371.84,615.84 375.72,621.72 378.44,626.61 C386.56,641.20 387.80,642.76 393.62,645.60 C397.89,647.69 399.00,648.73 399.00,650.62 C399.00,652.99 398.97,653.00 387.25,652.99 C379.86,652.98 374.58,652.51 373.03,651.72 C369.88,650.13 366.65,645.29 358.46,629.87 C350.53,614.95 348.73,612.95 342.72,612.27 C336.37,611.56 335.70,613.14 336.15,627.92 C336.55,641.36 337.74,644.20 344.09,646.87 C346.97,648.07 347.98,649.09 347.99,650.75 ZM 562.00 650.97 C562.00,652.93 561.43,653.00 544.47,653.00 C528.95,653.00 526.86,652.81 526.29,651.31 C525.88,650.24 526.30,649.24 527.46,648.56 C528.45,647.98 530.56,646.45 532.13,645.16 L 535.00 642.82 L 535.00 604.60 C535.00,574.01 535.00,567.97 532.04,565.55 C531.26,564.91 530.28,564.53 529.04,564.02 C525.86,562.70 525.55,562.21 526.77,560.42 C527.64,559.14 550.06,556.43 552.39,557.32 C553.79,557.85 554.00,560.27 554.00,575.48 L 554.00 593.03 L 560.25 589.85 C568.69,585.54 580.46,584.66 586.73,587.86 C595.50,592.34 597.00,597.21 597.00,621.20 C597.00,641.70 597.56,644.35 602.41,646.95 C604.07,647.84 605.00,649.18 605.00,650.69 L 605.00 653.05 L 588.33 652.77 C570.78,652.49 568.70,651.87 573.06,648.30 C575.14,646.59 576.51,645.56 577.40,644.22 C579.11,641.64 579.05,637.88 578.85,625.84 C578.84,625.04 578.82,624.19 578.81,623.31 L 578.50 604.13 L 575.56 601.06 C573.04,598.43 571.92,598.00 567.56,598.02 C564.17,598.03 561.18,598.78 558.50,600.30 L 554.50 602.56 L 554.22 621.53 C554.06,631.96 554.17,641.47 554.46,642.65 C554.75,643.83 556.56,645.73 558.49,646.86 C560.67,648.15 562.00,649.70 562.00,650.97 ZM 698.00 650.70 C690.43,654.34 678.74,654.90 671.36,651.98 C664.28,649.17 657.78,643.17 654.89,636.79 C652.81,632.20 652.50,629.98 652.50,619.98 C652.50,608.94 652.64,608.18 655.84,601.67 C661.47,590.23 670.70,585.40 685.37,586.21 C697.72,586.89 704.57,591.25 708.99,601.25 C711.37,606.62 712.58,614.56 711.61,618.42 L 710.96 621.00 L 669.82 621.00 L 670.53 625.25 C672.26,635.63 677.77,641.14 687.08,641.81 C693.50,642.28 698.73,640.93 704.23,637.40 C708.90,634.39 709.34,634.41 711.07,637.63 C712.42,640.16 712.31,640.40 707.99,644.15 C705.52,646.29 701.03,649.24 698.00,650.70 ZM 445.50 650.26 C433.43,656.45 417.35,654.52 408.26,645.80 C400.96,638.79 397.38,626.50 398.96,613.83 C400.43,602.11 405.28,594.34 414.18,589.50 C418.60,587.09 420.97,586.53 428.20,586.18 C436.26,585.79 437.37,585.98 443.43,588.82 C448.70,591.29 450.56,592.81 453.01,596.67 C456.89,602.80 458.17,607.64 457.80,614.79 L 457.50 620.50 L 437.14 620.77 L 416.79 621.04 L 417.45 624.77 C418.42,630.24 422.10,637.10 425.30,639.43 C427.34,640.91 430.06,641.56 435.30,641.83 C441.97,642.16 443.01,641.93 449.41,638.59 C453.21,636.60 456.41,635.10 456.52,635.24 C456.64,635.38 457.31,636.60 458.01,637.96 C459.20,640.23 459.01,640.66 455.39,643.80 C453.25,645.66 448.80,648.57 445.50,650.26 ZM 507.50 651.15 C503.43,653.00 500.46,653.46 491.50,653.64 C479.98,653.88 479.47,653.82 471.64,651.32 L 466.79 649.77 L 467.46 642.13 C467.82,637.94 468.35,633.71 468.63,632.75 C469.56,629.52 472.54,630.92 476.05,636.23 C480.18,642.50 484.62,645.67 490.50,646.55 C498.83,647.80 505.00,643.93 505.00,637.45 C505.00,632.82 501.42,630.16 491.42,627.34 C477.37,623.38 473.52,620.87 470.54,613.75 C463.83,597.70 478.17,584.94 501.44,586.26 C506.42,586.54 511.74,587.26 513.25,587.86 C515.88,588.90 516.00,589.25 516.00,595.89 C516.00,602.91 515.40,606.00 514.04,606.00 C513.63,606.00 511.89,603.73 510.16,600.95 C505.45,593.38 498.57,591.19 490.11,594.57 C486.05,596.20 483.22,600.53 484.33,603.42 C485.31,605.97 489.90,608.27 499.68,611.10 C504.91,612.62 510.89,614.98 512.97,616.36 C517.72,619.50 521.00,626.04 521.00,632.35 C521.00,641.12 516.82,646.94 507.50,651.15 ZM 646.46 651.25 C645.85,652.82 644.03,653.00 628.39,653.00 C611.60,653.00 611.00,652.93 611.00,650.98 C611.00,649.77 611.95,648.59 613.37,648.05 C614.67,647.55 616.70,645.93 617.87,644.44 C619.89,641.87 620.00,640.64 620.00,621.00 C620.00,601.69 619.86,600.09 617.97,597.69 C616.86,596.28 615.06,594.84 613.97,594.49 C610.11,593.27 611.87,591.17 617.75,589.98 C620.91,589.33 626.41,588.21 629.97,587.48 C633.53,586.75 636.79,586.37 637.22,586.64 C637.65,586.90 638.00,599.49 638.00,614.60 L 638.00 642.09 L 640.39 644.30 C641.70,645.51 643.76,647.17 644.96,648.00 C646.43,649.01 646.92,650.07 646.46,651.25 ZM 337.31 603.75 C338.60,605.75 348.49,605.30 352.91,603.04 C360.87,598.99 364.61,591.63 363.71,581.79 C362.72,570.81 356.47,565.00 345.67,565.00 C339.71,565.00 337.45,566.34 336.41,570.51 C335.57,573.87 336.33,602.24 337.31,603.75 ZM 606.91 737.25 C601.73,742.10 591.65,740.39 589.09,734.22 C587.72,730.92 588.88,726.73 591.58,725.22 C593.13,724.35 593.09,724.09 591.13,722.13 C584.83,715.83 593.89,706.83 603.39,709.96 C609.35,711.93 611.68,719.53 607.41,723.07 C606.24,724.04 606.43,724.72 608.54,727.23 C611.55,730.81 611.15,733.28 606.91,737.25 ZM 575.03 738.48 C568.06,742.09 556.04,737.99 560.84,733.65 C562.51,732.13 562.94,732.12 565.80,733.55 C569.37,735.33 572.17,734.41 574.09,730.83 C575.15,728.85 575.03,728.74 572.36,729.27 C562.07,731.30 554.09,721.24 560.02,713.71 C562.49,710.57 568.00,708.62 571.96,709.49 C575.78,710.33 580.72,715.98 581.56,720.48 C582.91,727.66 579.90,735.97 575.03,738.48 ZM 436.21 730.35 C435.94,739.67 435.85,740.00 433.63,740.00 C432.37,740.00 431.03,739.70 430.67,739.33 C430.30,738.97 430.00,732.22 430.00,724.33 L 430.00 710.00 L 432.88 710.00 C435.33,710.00 436.84,711.40 443.13,719.54 L 450.50 729.07 L 450.79 719.54 L 451.07 710.00 L 457.00 710.00 L 457.00 740.00 L 454.54 740.00 C451.73,740.00 450.11,738.43 442.18,728.10 L 436.50 720.70 ZM 519.82 736.75 L 519.50 739.50 L 508.75 739.78 L 498.00 740.07 L 498.00 710.00 L 520.00 710.00 L 520.00 712.50 C520.00,714.96 519.87,715.00 512.00,715.00 L 504.00 715.00 L 504.00 722.00 L 519.13 722.00 L 518.82 724.75 C518.51,727.44 518.33,727.51 511.25,727.79 L 504.00 728.09 L 504.00 734.00 L 520.13 734.00 ZM 402.03 738.31 C399.07,740.33 392.70,740.45 388.37,738.56 C384.11,736.71 383.39,735.17 385.68,732.87 C387.58,730.98 387.66,730.98 391.78,733.23 C396.33,735.71 399.50,735.00 399.50,731.50 C399.50,729.50 398.57,728.90 391.73,726.50 C381.19,722.79 382.38,711.52 393.54,709.43 C397.30,708.72 403.21,710.35 405.09,712.61 C406.11,713.84 405.95,714.49 404.20,716.24 C402.16,718.28 401.99,718.30 400.13,716.62 C397.34,714.10 391.61,714.76 391.19,717.65 C390.94,719.45 391.75,720.08 396.19,721.53 C403.33,723.84 406.00,726.41 405.98,730.92 C405.97,735.01 405.46,735.96 402.03,738.31 ZM 638.81 736.80 L 638.50 739.50 L 628.95 739.78 C623.70,739.94 619.09,739.75 618.70,739.37 C617.66,738.32 617.85,733.14 619.02,730.97 C619.58,729.92 621.99,727.92 624.37,726.52 C630.09,723.17 632.23,720.67 631.83,717.83 C631.40,714.79 626.67,714.08 623.85,716.63 C622.35,717.99 621.48,718.16 620.19,717.35 C619.26,716.76 618.50,715.70 618.50,715.00 C618.50,712.93 623.16,710.11 627.73,709.40 C631.62,708.80 632.23,709.03 635.48,712.28 C641.58,718.38 639.90,723.65 629.78,730.13 L 624.53 733.50 L 631.82 733.80 C639.11,734.09 639.12,734.10 638.81,736.80 ZM 416.44 612.69 C416.86,613.79 417.99,614.03 420.75,613.62 C422.81,613.31 427.99,612.77 432.26,612.41 C436.53,612.06 440.28,611.36 440.58,610.87 C440.89,610.37 440.63,607.52 440.00,604.52 C438.12,595.47 431.38,591.68 423.97,595.52 C422.35,596.35 420.40,598.26 419.62,599.77 C417.56,603.76 415.78,610.98 416.44,612.69 ZM 670.33 612.42 C670.90,613.90 672.98,613.87 688.00,612.13 C692.64,611.60 693.55,611.16 693.81,609.33 C694.33,605.70 692.01,598.92 689.35,596.26 C687.19,594.10 686.21,593.83 682.21,594.28 C676.09,594.97 671.46,599.74 670.46,606.39 C670.09,608.91 670.03,611.63 670.33,612.42 ZM 487.75 738.01 C481.30,741.94 470.99,739.31 466.96,732.70 C464.60,728.84 464.36,721.13 466.48,717.05 C469.43,711.33 478.84,707.80 485.35,709.95 C490.25,711.57 491.80,713.63 489.70,715.73 C488.36,717.07 487.62,717.15 485.49,716.18 C481.43,714.33 477.37,714.78 474.31,717.41 C471.98,719.42 471.50,720.62 471.50,724.50 C471.50,728.38 471.98,729.58 474.31,731.59 C477.39,734.24 482.74,734.80 485.93,732.81 C487.43,731.88 488.18,731.90 489.42,732.93 C491.71,734.83 491.40,735.79 487.75,738.01 ZM 631.09 577.45 C627.37,579.38 626.33,579.36 622.20,577.33 C616.65,574.59 614.22,566.98 617.43,562.40 C619.23,559.83 626.23,557.67 630.05,558.51 C633.49,559.27 638.00,564.27 638.00,567.33 C637.99,570.56 634.49,575.69 631.09,577.45 ZM 550.00 710.00 L 550.00 740.00 L 544.00 740.00 L 544.00 717.05 L 541.00 717.65 C538.28,718.19 538.00,718.01 538.00,715.64 C538.00,713.58 538.77,712.71 541.62,711.51 C543.61,710.68 546.31,710.00 547.62,710.00 ZM 420.00 710.00 L 420.00 740.00 L 417.67 740.00 C416.38,740.00 415.03,739.70 414.67,739.33 C414.30,738.97 414.00,732.22 414.00,724.33 L 414.00 710.00 ZM 566.00 722.00 C568.27,724.27 569.32,724.44 572.07,722.96 C574.23,721.81 574.64,718.04 572.80,716.20 C571.12,714.52 567.44,714.71 565.57,716.57 C563.51,718.63 563.59,719.59 566.00,722.00 ZM 595.57 733.43 C597.44,735.29 601.12,735.48 602.80,733.80 C606.54,730.06 601.12,725.38 596.54,728.38 C593.59,730.31 593.41,731.26 595.57,733.43 ZM 597.18 720.89 C600.34,722.08 603.21,720.45 602.81,717.68 C602.56,715.91 601.84,715.50 599.00,715.50 C596.13,715.50 595.44,715.91 595.18,717.76 C594.95,719.36 595.53,720.26 597.18,720.89 Z" fill="rgb(51,19,4)"/>
<path d="M 421.09 550.17 C414.16,552.42 407.94,554.48 407.25,554.74 C405.82,555.28 405.75,555.02 405.98,549.24 C406.20,543.74 403.06,538.50 398.71,537.09 C389.41,534.08 381.68,533.03 368.82,533.01 L 355.14 533.00 L 355.70 527.63 C356.24,522.38 356.16,522.16 352.15,518.15 C346.79,512.79 336.00,507.46 317.50,501.03 L 317.35 500.98 C300.31,495.06 297.38,494.04 297.45,493.29 C297.46,493.14 297.61,492.99 297.79,492.81 C298.28,492.32 303.14,490.80 308.59,489.43 C337.68,482.12 352.52,474.76 354.56,466.63 C355.50,462.85 352.78,457.17 347.65,452.21 C341.66,446.43 327.39,435.95 315.88,428.88 C310.40,425.51 306.08,422.25 306.28,421.63 C306.49,421.01 307.97,420.37 309.58,420.20 C319.53,419.18 325.97,414.53 328.03,406.87 C329.92,399.86 326.24,390.24 319.06,383.44 L 315.02 379.61 L 319.26 377.50 C324.99,374.65 327.00,370.48 326.97,361.50 C326.96,355.36 325.61,347.82 322.21,334.85 C321.69,332.84 319.85,328.38 318.13,324.94 C315.03,318.74 314.30,315.99 315.75,316.01 C316.16,316.02 318.52,317.19 321.00,318.62 C323.48,320.05 327.75,322.04 330.50,323.05 C333.25,324.05 338.65,326.01 342.50,327.41 C351.18,330.56 357.77,330.76 361.30,327.98 C362.89,326.73 364.10,326.35 364.50,326.99 C365.40,328.45 374.70,334.20 379.77,336.44 C382.49,337.64 386.23,338.30 390.10,338.27 C396.69,338.20 399.69,336.39 402.67,330.65 L 404.16 327.80 L 406.58 330.08 C407.92,331.33 410.30,334.64 411.88,337.43 C420.46,352.59 440.45,377.01 447.20,380.57 L 447.34 380.65 C449.02,381.53 449.86,381.98 450.51,381.78 C451.19,381.57 451.64,380.66 452.61,378.79 C454.36,375.41 454.24,369.78 452.01,351.50 C451.36,346.18 451.39,339.64 452.08,332.00 C452.68,325.29 452.83,313.11 452.43,302.77 C451.80,286.55 451.89,284.98 453.46,284.38 C454.41,284.01 456.73,284.46 458.62,285.36 C463.05,287.47 469.87,287.46 473.03,285.35 C479.64,280.92 485.00,273.52 485.00,268.80 C485.00,267.55 487.51,264.06 491.06,260.36 C497.74,253.41 504.98,239.59 508.92,226.29 C510.10,222.32 511.44,218.84 511.91,218.55 C512.83,217.98 513.67,219.92 516.83,230.00 C522.20,247.14 528.33,258.18 535.07,262.84 C537.19,264.30 538.94,266.26 538.96,267.19 C538.98,268.12 539.45,269.16 540.00,269.50 C540.55,269.84 541.00,271.04 541.00,272.17 C541.00,275.50 544.82,281.32 548.66,283.83 C553.00,286.67 561.31,287.71 566.35,286.05 C570.98,284.52 573.59,286.50 572.53,290.74 C571.48,294.92 571.85,318.26 573.17,331.29 C574.22,341.62 574.14,344.67 572.55,355.94 C570.57,369.87 570.82,378.25 573.28,380.71 C574.69,382.12 575.16,382.06 578.30,380.13 C586.43,375.10 605.12,351.75 615.81,333.25 C617.80,329.81 619.77,327.00 620.20,327.00 C620.63,327.00 621.60,328.46 622.36,330.25 C623.12,332.04 624.92,334.58 626.35,335.91 C631.87,340.99 645.88,338.34 655.72,330.34 C659.82,327.02 660.02,326.96 662.92,328.46 C669.85,332.04 681.74,329.53 698.69,320.90 C703.99,318.20 708.53,316.20 708.78,316.45 C709.69,317.36 708.00,321.70 705.05,326.06 C702.95,329.16 702.03,331.72 702.02,334.54 C702.01,336.76 701.29,341.26 700.43,344.54 C698.49,351.87 697.50,363.52 698.40,368.35 C699.36,373.45 703.46,378.00 707.09,378.00 C708.69,378.00 710.00,378.34 709.99,378.75 C709.99,379.16 707.92,381.52 705.39,384.00 C702.87,386.48 699.94,390.19 698.88,392.25 C694.95,399.93 695.54,409.53 700.27,414.72 C702.36,417.02 709.28,419.68 714.50,420.20 C718.96,420.65 718.23,423.01 712.50,426.66 C692.13,439.65 674.67,453.87 671.45,460.10 C668.50,465.81 670.18,471.55 675.89,475.27 C682.78,479.74 701.89,486.47 716.50,489.57 C720.90,490.50 725.33,491.69 726.35,492.22 C728.06,493.10 727.99,493.29 725.47,494.60 C723.96,495.38 716.61,498.10 709.12,500.64 C691.91,506.48 682.04,510.98 675.40,515.99 C669.45,520.48 667.06,525.38 669.03,529.06 C669.67,530.24 669.81,531.58 669.34,532.02 C668.88,532.46 660.85,533.01 651.50,533.23 C636.87,533.58 633.70,533.95 628.79,535.87 C620.87,538.98 618.00,542.62 618.00,549.58 C618.00,553.45 617.62,555.00 616.65,555.00 C615.91,555.00 608.14,552.79 599.38,550.09 C571.41,541.46 546.99,537.75 530.29,539.27 C532.29,539.07 534.35,538.96 536.43,538.93 C541.54,538.88 542.14,538.69 540.25,537.78 C539.01,537.18 537.97,535.98 537.92,535.10 C537.88,534.22 537.67,532.15 537.46,530.50 C537.25,528.85 536.77,524.36 536.41,520.51 C536.03,516.63 535.15,513.08 534.41,512.51 C533.53,511.83 532.76,506.91 532.07,497.50 C530.78,479.70 529.70,473.05 527.92,471.95 C526.79,471.25 526.43,467.10 526.18,451.79 C525.91,435.13 525.63,432.32 524.18,431.21 C522.67,430.04 522.53,427.42 522.84,404.98 C523.16,382.10 523.12,380.11 521.38,377.76 C521.68,375.56 520.35,359.01 519.75,358.41 C518.73,357.40 518.82,370.23 519.66,374.75 C519.13,373.04 519.00,370.62 519.00,366.07 C519.00,360.47 518.56,356.96 517.75,356.15 C516.94,355.34 516.38,350.81 516.16,343.20 C515.20,310.33 514.85,307.91 511.21,308.44 C509.93,308.62 509.47,310.03 508.94,316.26 C508.98,315.35 509.00,314.48 509.00,313.69 C509.00,306.10 507.57,311.10 507.03,320.55 C506.74,325.75 506.77,330.00 507.11,330.00 C507.15,330.00 507.20,329.96 507.24,329.88 C507.17,330.15 507.10,330.36 507.03,330.50 C506.49,331.60 505.83,337.67 505.57,344.00 C505.03,357.13 503.62,371.96 502.15,380.00 C501.60,383.02 501.11,389.13 501.07,393.56 C501.02,399.00 500.52,402.25 499.53,403.56 C498.33,405.15 498.06,410.18 498.03,431.13 C498.00,455.91 497.93,456.78 496.00,457.29 C494.11,457.78 494.00,458.65 494.00,473.26 L 494.00 488.70 L 491.02 493.10 C488.18,497.28 488.04,498.02 488.01,508.00 C487.99,517.18 487.37,523.75 485.53,534.25 C485.07,536.89 485.22,537.00 489.27,537.01 C492.87,537.01 496.01,537.56 498.92,538.73 C495.38,537.41 491.22,537.01 484.42,537.01 C469.70,537.00 447.28,541.66 421.09,550.17 ZM 510.07 546.04 L 509.90 545.91 C510.33,545.79 512.19,544.81 514.29,543.60 L 514.32 543.58 C514.31,543.58 514.30,543.59 514.29,543.60 L 510.07 546.04 Z" fill="rgb(251,138,36)"/>
<path d="M 534.50 821.47 C514.64,823.23 504.68,823.23 485.50,821.49 C428.15,816.28 380.27,799.49 331.50,767.50 C264.04,723.26 215.55,655.06 196.04,577.00 C187.52,542.89 184.18,512.48 185.96,485.16 C191.26,403.85 221.07,335.03 275.69,278.01 C332.11,219.12 403.25,185.85 489.50,178.00 C511.93,175.96 541.31,177.48 568.50,182.07 C618.21,190.48 665.35,210.50 705.81,240.40 C779.41,294.77 824.35,370.75 836.60,461.50 C839.00,479.26 839.02,511.54 836.64,531.00 C830.51,581.28 816.24,625.01 793.73,662.50 C762.00,715.33 716.45,757.68 661.00,785.92 C634.65,799.34 616.21,806.13 587.50,813.00 C567.86,817.70 556.48,819.52 534.50,821.47 ZM 483.50 811.46 C500.68,813.25 535.34,812.76 552.00,810.50 C608.49,802.83 656.77,784.13 696.26,754.61 C743.13,719.59 779.33,675.90 800.90,628.33 C820.38,585.37 829.39,543.70 829.30,497.00 C829.21,455.44 823.59,425.55 808.99,388.99 C792.57,347.85 771.21,314.66 741.54,284.14 C687.59,228.66 621.68,196.73 544.00,188.45 C497.48,183.49 444.96,190.40 398.00,207.65 C384.89,212.47 354.66,227.51 342.00,235.51 C303.12,260.09 266.43,297.02 242.22,335.92 C235.22,347.18 224.10,369.00 218.69,382.10 C186.22,460.69 187.74,546.86 223.00,626.00 C269.05,729.39 367.38,799.39 483.50,811.46 ZM 540.59 270.26 C540.42,269.91 540.22,269.64 540.00,269.50 C539.45,269.16 538.98,268.12 538.96,267.19 C538.94,266.26 537.19,264.30 535.07,262.84 C528.33,258.18 522.20,247.14 516.83,230.00 C513.67,219.92 512.83,217.98 511.91,218.55 C511.44,218.84 510.10,222.32 508.92,226.29 C504.98,239.59 497.74,253.41 491.06,260.36 C487.51,264.06 485.00,267.55 485.00,268.80 C485.00,271.51 483.23,275.11 480.47,278.52 C482.62,275.40 483.96,271.72 484.00,268.00 C484.02,266.25 485.62,264.10 489.33,260.85 C497.38,253.79 505.05,237.32 511.15,214.00 L 512.33 209.50 L 514.18 216.00 C523.01,246.96 529.20,259.77 536.86,262.94 C539.37,263.98 539.85,264.84 540.45,269.30 C540.49,269.62 540.54,269.94 540.59,270.26 ZM 698.46 356.15 C698.86,352.09 699.55,347.87 700.43,344.54 C701.29,341.26 702.01,336.76 702.02,334.54 C702.03,331.72 702.95,329.16 705.05,326.06 C708.00,321.70 709.69,317.36 708.78,316.45 C708.53,316.20 703.99,318.20 698.69,320.90 C690.16,325.25 682.91,328.04 676.93,329.29 C681.19,328.11 687.36,325.13 701.75,317.83 C709.04,314.13 715.00,311.31 715.00,311.56 C715.00,311.81 713.68,313.84 712.07,316.06 C705.81,324.71 700.10,342.56 698.46,356.15 ZM 573.99 287.04 C572.44,297.91 571.91,309.98 572.45,321.55 C571.76,308.95 571.71,294.00 572.53,290.74 C573.59,286.50 570.98,284.52 566.35,286.05 C563.08,287.13 558.42,287.07 554.38,286.12 C558.61,286.81 563.48,285.89 568.55,283.14 C571.74,281.42 574.47,280.14 574.62,280.29 C574.78,280.45 574.49,283.48 573.99,287.04 ZM 339.54 326.33 C336.22,325.13 332.59,323.81 330.50,323.05 C327.75,322.04 323.48,320.05 321.00,318.62 C318.52,317.19 316.16,316.02 315.75,316.01 C314.30,315.99 315.03,318.74 318.13,324.94 C319.85,328.38 321.69,332.84 322.21,334.85 C322.59,336.28 322.93,337.64 323.26,338.95 C323.03,338.34 322.81,337.85 322.60,337.50 C321.93,336.40 320.56,333.25 319.55,330.50 C317.59,325.16 313.78,318.02 310.80,314.10 C309.79,312.78 309.15,311.52 309.36,311.30 C309.58,311.09 312.15,312.32 315.07,314.04 C324.47,319.58 332.67,323.69 339.54,326.33 ZM 462.84 286.64 C461.34,286.39 459.88,285.96 458.62,285.36 C456.73,284.46 454.41,284.01 453.46,284.38 C451.89,284.98 451.80,286.55 452.43,302.77 C452.51,304.93 452.57,307.17 452.61,309.42 C452.36,304.45 451.86,298.85 451.08,291.57 C450.50,286.12 450.17,281.50 450.34,281.32 C450.52,281.14 453.11,282.34 456.09,283.98 C458.57,285.35 460.74,286.21 462.84,286.64 ZM 519.75 358.41 C520.35,359.01 521.68,375.56 521.38,377.76 C521.29,377.64 521.19,377.52 521.09,377.39 C520.44,376.56 519.98,375.78 519.66,374.75 C518.82,370.23 518.73,357.40 519.75,358.41 ZM 509.00 313.69 C509.00,314.48 508.98,315.35 508.94,316.26 C508.88,316.97 508.82,317.75 508.76,318.59 C508.40,323.35 507.76,328.04 507.24,329.88 C507.20,329.96 507.15,330.00 507.11,330.00 C506.77,330.00 506.74,325.75 507.03,320.55 C507.57,311.10 509.00,306.10 509.00,313.69 ZM 318.33 418.00 C315.82,419.12 312.89,419.86 309.58,420.20 C307.97,420.37 306.49,421.01 306.28,421.63 C306.08,422.25 310.40,425.51 315.88,428.88 C326.35,435.31 339.09,444.56 345.82,450.53 C335.82,441.66 313.28,426.31 305.25,423.07 C300.49,421.15 301.27,420.00 307.32,420.00 C311.56,420.00 315.25,419.32 318.33,418.00 ZM 705.62 431.16 C707.87,429.66 710.16,428.15 712.50,426.66 C718.23,423.01 718.96,420.65 714.50,420.20 C712.30,419.98 709.81,419.38 707.49,418.59 C710.35,419.47 713.57,420.00 716.63,420.00 C719.58,420.00 721.99,420.34 721.97,420.75 C721.95,421.16 718.46,423.48 714.22,425.90 C711.45,427.48 708.55,429.26 705.62,431.16 ZM 687.83 508.84 C693.36,506.29 700.27,503.65 709.12,500.64 C716.61,498.10 723.96,495.38 725.47,494.60 C727.99,493.29 728.06,493.10 726.35,492.22 C725.33,491.69 720.90,490.50 716.50,489.57 C706.11,487.37 693.45,483.33 684.52,479.57 C693.76,483.40 707.18,487.59 718.75,490.05 C724.94,491.37 730.00,492.71 730.00,493.04 C730.00,493.37 722.24,496.25 712.75,499.44 C701.77,503.13 693.88,506.08 687.83,508.84 ZM 306.56 489.95 C301.98,491.16 298.22,492.38 297.79,492.81 C297.61,492.99 297.46,493.14 297.45,493.29 C297.40,493.84 298.93,494.52 306.32,497.13 C303.49,496.21 301.04,495.46 299.25,495.01 C296.91,494.41 295.00,493.57 295.00,493.14 C295.00,492.72 297.95,491.78 301.56,491.06 C303.06,490.76 304.75,490.39 306.56,489.95 ZM 344.77 476.71 C349.92,473.56 353.68,469.83 354.52,466.78 C353.59,470.21 350.38,473.50 344.77,476.71 ZM 333.10 482.03 C327.53,484.13 320.86,486.20 313.07,488.27 C319.89,486.41 327.35,484.10 333.10,482.03 ZM 342.56 327.43 C351.50,330.47 357.86,330.69 361.30,327.98 C357.77,330.75 351.21,330.56 342.56,327.43 ZM 671.62 330.01 C668.15,330.18 665.25,329.67 662.92,328.46 C664.56,329.31 668.29,330.00 671.20,330.01 C671.34,330.01 671.48,330.01 671.62,330.01 ZM 474.07 284.62 C473.73,284.87 473.38,285.11 473.03,285.35 C471.75,286.20 469.89,286.71 467.82,286.88 C469.98,286.60 472.11,285.80 474.07,284.62 ZM 543.12 277.89 C541.87,275.89 541.05,273.85 541.00,272.30 C541.51,274.38 542.22,276.25 543.12,277.89 ZM 319.46 501.72 C325.26,503.77 330.27,505.71 334.55,507.58 C330.34,505.82 324.91,503.72 319.46,501.72 ZM 344.75 512.67 C347.90,514.52 350.33,516.33 352.15,518.15 C350.64,516.64 347.77,514.54 344.75,512.67 ZM 698.41 412.08 C697.30,410.05 696.62,407.67 696.38,405.14 C696.70,407.63 697.42,410.12 698.41,412.08 ZM 697.45 395.71 C697.83,394.53 698.31,393.37 698.88,392.25 C699.28,391.48 699.93,390.47 700.73,389.39 C699.29,391.45 698.20,393.53 697.45,395.71 ZM 682.20 448.71 C676.81,453.38 672.81,457.51 671.45,460.10 C672.80,457.48 676.66,453.46 682.20,448.71 ZM 451.69 348.02 C451.77,349.23 451.88,350.39 452.01,351.50 C452.59,356.27 453.03,360.18 453.33,363.41 C453.03,360.27 452.60,356.52 452.03,352.00 C451.88,350.80 451.77,349.47 451.69,348.02 ZM 572.47 356.47 C572.50,356.30 572.52,356.12 572.55,355.94 C573.27,350.87 573.68,347.46 573.81,344.30 C573.71,347.62 573.30,350.89 572.55,355.96 C572.52,356.13 572.50,356.30 572.47,356.47 ZM 670.76 461.66 C669.57,464.89 669.88,468.15 671.54,470.94 C669.84,468.16 669.54,464.94 670.76,461.66 ZM 319.26 377.50 C322.55,375.87 324.63,373.74 325.80,370.56 C324.65,373.76 322.58,375.85 319.26,377.50 ZM 453.76 369.43 C453.97,374.39 453.57,376.93 452.61,378.79 C453.56,376.95 453.96,374.29 453.76,369.43 ZM 354.08 461.55 C354.74,463.43 354.92,465.17 354.56,466.63 C354.92,465.17 354.74,463.42 354.08,461.55 ZM 326.74 356.93 C326.79,357.48 326.83,358.01 326.87,358.52 C326.83,358.01 326.79,357.48 326.74,356.93 ZM 452.18 330.70 C452.16,330.97 452.14,331.23 452.12,331.49 C452.13,331.34 452.14,331.20 452.16,331.05 C452.17,330.93 452.18,330.81 452.18,330.70 Z" fill="rgb(213,151,92)"/>
<path d="M 0.00 512.00 L 0.00 0.00 L 512.00 0.00 L 1024.00 0.00 L 1024.00 512.00 L 1024.00 1024.00 L 512.00 1024.00 L 0.00 1024.00 L 0.00 512.00 ZM 534.50 821.47 C556.48,819.52 567.86,817.70 587.50,813.00 C616.21,806.13 634.65,799.34 661.00,785.92 C716.45,757.68 762.00,715.33 793.73,662.50 C816.24,625.01 830.51,581.28 836.64,531.00 C839.02,511.54 839.00,479.26 836.60,461.50 C824.35,370.75 779.41,294.77 705.81,240.40 C665.35,210.50 618.21,190.48 568.50,182.07 C541.31,177.48 511.93,175.96 489.50,178.00 C403.25,185.85 332.11,219.12 275.69,278.01 C221.07,335.03 191.26,403.85 185.96,485.16 C184.18,512.48 187.52,542.89 196.04,577.00 C215.55,655.06 264.04,723.26 331.50,767.50 C380.27,799.49 428.15,816.28 485.50,821.49 C504.68,823.23 514.64,823.23 534.50,821.47 ZM 483.50 811.46 C367.38,799.39 269.05,729.39 223.00,626.00 C187.74,546.86 186.22,460.69 218.69,382.10 C224.10,369.00 235.22,347.18 242.22,335.92 C266.43,297.02 303.12,260.09 342.00,235.51 C354.66,227.51 384.89,212.47 398.00,207.65 C444.96,190.40 497.48,183.49 544.00,188.45 C621.68,196.73 687.59,228.66 741.54,284.14 C771.21,314.66 792.57,347.85 808.99,388.99 C823.59,425.55 829.21,455.44 829.30,497.00 C829.39,543.70 820.38,585.37 800.90,628.33 C779.33,675.90 743.13,719.59 696.26,754.61 C656.77,784.13 608.49,802.83 552.00,810.50 C535.34,812.76 500.68,813.25 483.50,811.46 ZM 402.03 738.31 C405.46,735.96 405.97,735.01 405.98,730.92 C406.00,726.41 403.33,723.84 396.19,721.53 C391.75,720.08 390.94,719.45 391.19,717.65 C391.61,714.76 397.34,714.10 400.13,716.62 C401.99,718.30 402.16,718.28 404.20,716.24 C405.95,714.49 406.11,713.84 405.09,712.61 C403.21,710.35 397.30,708.72 393.54,709.43 C382.38,711.52 381.19,722.79 391.73,726.50 C398.57,728.90 399.50,729.50 399.50,731.50 C399.50,735.00 396.33,735.71 391.78,733.23 C387.66,730.98 387.58,730.98 385.68,732.87 C383.39,735.17 384.11,736.71 388.37,738.56 C392.70,740.45 399.07,740.33 402.03,738.31 ZM 420.00 725.00 L 420.00 710.00 L 417.00 710.00 L 414.00 710.00 L 414.00 724.33 C414.00,732.22 414.30,738.97 414.67,739.33 C415.03,739.70 416.38,740.00 417.67,740.00 L 420.00 740.00 L 420.00 725.00 ZM 436.21 730.35 L 436.50 720.70 L 442.18 728.10 C450.11,738.43 451.73,740.00 454.54,740.00 L 457.00 740.00 L 457.00 725.00 L 457.00 710.00 L 454.04 710.00 L 451.07 710.00 L 450.79 719.54 L 450.50 729.07 L 443.13 719.54 C436.84,711.40 435.33,710.00 432.88,710.00 L 430.00 710.00 L 430.00 724.33 C430.00,732.22 430.30,738.97 430.67,739.33 C431.03,739.70 432.37,740.00 433.63,740.00 C435.85,740.00 435.94,739.67 436.21,730.35 ZM 487.75 738.01 C491.40,735.79 491.71,734.83 489.42,732.93 C488.18,731.90 487.43,731.88 485.93,732.81 C482.74,734.80 477.39,734.24 474.31,731.59 C471.98,729.58 471.50,728.38 471.50,724.50 C471.50,720.62 471.98,719.42 474.31,717.41 C477.37,714.78 481.43,714.33 485.49,716.18 C487.62,717.15 488.36,717.07 489.70,715.73 C491.80,713.63 490.25,711.57 485.35,709.95 C478.84,707.80 469.43,711.33 466.48,717.05 C464.36,721.13 464.60,728.84 466.96,732.70 C470.99,739.31 481.30,741.94 487.75,738.01 ZM 519.82 736.75 L 520.13 734.00 L 512.07 734.00 L 504.00 734.00 L 504.00 731.04 L 504.00 728.09 L 511.25 727.79 C518.33,727.51 518.51,727.44 518.82,724.75 L 519.13 722.00 L 511.57 722.00 L 504.00 722.00 L 504.00 718.50 L 504.00 715.00 L 512.00 715.00 C519.87,715.00 520.00,714.96 520.00,712.50 L 520.00 710.00 L 509.00 710.00 L 498.00 710.00 L 498.00 725.03 L 498.00 740.07 L 508.75 739.78 L 519.50 739.50 L 519.82 736.75 ZM 550.00 725.00 L 550.00 710.00 L 547.62 710.00 C546.31,710.00 543.61,710.68 541.62,711.51 C538.77,712.71 538.00,713.58 538.00,715.64 C538.00,718.01 538.28,718.19 541.00,717.65 L 544.00 717.05 L 544.00 728.53 L 544.00 740.00 L 547.00 740.00 L 550.00 740.00 L 550.00 725.00 ZM 575.03 738.48 C579.90,735.97 582.91,727.66 581.56,720.48 C580.72,715.98 575.78,710.33 571.96,709.49 C568.00,708.62 562.49,710.57 560.02,713.71 C554.09,721.24 562.07,731.30 572.36,729.27 C575.03,728.74 575.15,728.85 574.09,730.83 C572.17,734.41 569.37,735.33 565.80,733.55 C562.94,732.12 562.51,732.13 560.84,733.65 C556.04,737.99 568.06,742.09 575.03,738.48 ZM 606.91 737.25 C611.15,733.28 611.55,730.81 608.54,727.23 C606.43,724.72 606.24,724.04 607.41,723.07 C611.68,719.53 609.35,711.93 603.39,709.96 C593.89,706.83 584.83,715.83 591.13,722.13 C593.09,724.09 593.13,724.35 591.58,725.22 C588.88,726.73 587.72,730.92 589.09,734.22 C591.65,740.39 601.73,742.10 606.91,737.25 ZM 638.81 736.80 C639.12,734.10 639.11,734.09 631.82,733.80 L 624.53 733.50 L 629.78 730.13 C639.90,723.65 641.58,718.38 635.48,712.28 C632.23,709.03 631.62,708.80 627.73,709.40 C623.16,710.11 618.50,712.93 618.50,715.00 C618.50,715.70 619.26,716.76 620.19,717.35 C621.48,718.16 622.35,717.99 623.85,716.63 C626.67,714.08 631.40,714.79 631.83,717.83 C632.23,720.67 630.09,723.17 624.37,726.52 C621.99,727.92 619.58,729.92 619.02,730.97 C617.85,733.14 617.66,738.32 618.70,739.37 C619.09,739.75 623.70,739.94 628.95,739.78 L 638.50 739.50 L 638.81 736.80 ZM 445.50 650.26 C448.80,648.57 453.25,645.66 455.39,643.80 C459.01,640.66 459.20,640.23 458.01,637.96 C457.31,636.60 456.64,635.38 456.52,635.24 C456.41,635.10 453.21,636.60 449.41,638.59 C443.01,641.93 441.97,642.16 435.30,641.83 C430.06,641.56 427.34,640.91 425.30,639.43 C422.10,637.10 418.42,630.24 417.45,624.77 L 416.79 621.04 L 437.14 620.77 L 457.50 620.50 L 457.80 614.79 C458.17,607.64 456.89,602.80 453.01,596.67 C450.56,592.81 448.70,591.29 443.43,588.82 C437.37,585.98 436.26,585.79 428.20,586.18 C420.97,586.53 418.60,587.09 414.18,589.50 C405.28,594.34 400.43,602.11 398.96,613.83 C397.38,626.50 400.96,638.79 408.26,645.80 C417.35,654.52 433.43,656.45 445.50,650.26 ZM 507.50 651.15 C516.82,646.94 521.00,641.12 521.00,632.35 C521.00,626.04 517.72,619.50 512.97,616.36 C510.89,614.98 504.91,612.62 499.68,611.10 C489.90,608.27 485.31,605.97 484.33,603.42 C483.22,600.53 486.05,596.20 490.11,594.57 C498.57,591.19 505.45,593.38 510.16,600.95 C511.89,603.73 513.63,606.00 514.04,606.00 C515.40,606.00 516.00,602.91 516.00,595.89 C516.00,589.25 515.88,588.90 513.25,587.86 C511.74,587.26 506.42,586.54 501.44,586.26 C478.17,584.94 463.83,597.70 470.54,613.75 C473.52,620.87 477.37,623.38 491.42,627.34 C501.42,630.16 505.00,632.82 505.00,637.45 C505.00,643.93 498.83,647.80 490.50,646.55 C484.62,645.67 480.18,642.50 476.05,636.23 C472.54,630.92 469.56,629.52 468.63,632.75 C468.35,633.71 467.82,637.94 467.46,642.13 L 466.79 649.77 L 471.64 651.32 C479.47,653.82 479.98,653.88 491.50,653.64 C500.46,653.46 503.43,653.00 507.50,651.15 ZM 698.00 650.70 C701.03,649.24 705.52,646.29 707.99,644.15 C712.31,640.40 712.42,640.16 711.07,637.63 C709.34,634.41 708.90,634.39 704.23,637.40 C698.73,640.93 693.50,642.28 687.08,641.81 C677.77,641.14 672.26,635.63 670.53,625.25 L 669.82 621.00 L 690.39 621.00 L 710.96 621.00 L 711.61 618.42 C712.58,614.56 711.37,606.62 708.99,601.25 C704.57,591.25 697.72,586.89 685.37,586.21 C670.70,585.40 661.47,590.23 655.84,601.67 C652.64,608.18 652.50,608.94 652.50,619.98 C652.50,629.98 652.81,632.20 654.89,636.79 C657.78,643.17 664.28,649.17 671.36,651.98 C678.74,654.90 690.43,654.34 698.00,650.70 ZM 347.99 650.75 C347.98,649.09 346.97,648.07 344.09,646.87 C337.74,644.20 336.55,641.36 336.15,627.92 C335.70,613.14 336.37,611.56 342.72,612.27 C348.73,612.95 350.53,614.95 358.46,629.87 C366.65,645.29 369.88,650.13 373.03,651.72 C374.58,652.51 379.86,652.98 387.25,652.99 C398.97,653.00 399.00,652.99 399.00,650.62 C399.00,648.73 397.89,647.69 393.62,645.60 C387.80,642.76 386.56,641.20 378.44,626.61 C375.72,621.72 371.84,615.84 369.82,613.54 L 366.14 609.35 L 369.52 608.13 C374.42,606.36 381.67,597.84 383.49,591.72 C388.61,574.49 381.05,561.02 364.50,557.89 C358.46,556.74 314.72,557.34 308.70,558.64 C304.51,559.56 305.35,563.19 309.98,564.13 C311.89,564.52 314.27,565.85 315.27,567.09 C316.97,569.18 317.07,571.76 316.80,605.52 C316.47,645.86 316.83,643.85 309.25,647.21 C305.30,648.96 304.06,650.73 305.67,652.33 C306.03,652.70 315.71,653.00 327.17,653.00 L 348.00 653.00 L 347.99 650.75 ZM 562.00 650.97 C562.00,649.70 560.67,648.15 558.49,646.86 C556.56,645.73 554.75,643.83 554.46,642.65 C554.17,641.47 554.06,631.96 554.22,621.53 L 554.50 602.56 L 558.50 600.30 C561.18,598.78 564.17,598.03 567.56,598.02 C571.92,598.00 573.04,598.43 575.56,601.06 L 578.50 604.13 L 578.81 623.31 C579.14,644.23 579.41,643.08 573.06,648.30 C568.70,651.87 570.78,652.49 588.33,652.77 L 605.00 653.05 L 605.00 650.69 C605.00,649.18 604.07,647.84 602.41,646.95 C597.56,644.35 597.00,641.70 597.00,621.20 C597.00,597.21 595.50,592.34 586.73,587.86 C580.46,584.66 568.69,585.54 560.25,589.85 L 554.00 593.03 L 554.00 575.48 C554.00,560.27 553.79,557.85 552.39,557.32 C550.06,556.43 527.64,559.14 526.77,560.42 C525.55,562.21 525.86,562.70 529.04,564.02 C535.08,566.52 535.00,565.96 535.00,606.13 L 535.00 642.82 L 532.13 645.16 C530.56,646.45 528.45,647.98 527.46,648.56 C526.30,649.24 525.88,650.24 526.29,651.31 C526.86,652.81 528.95,653.00 544.47,653.00 C561.43,653.00 562.00,652.93 562.00,650.97 ZM 646.46 651.25 C646.92,650.07 646.43,649.01 644.96,648.00 C643.76,647.17 641.70,645.51 640.39,644.30 L 638.00 642.09 L 638.00 614.60 C638.00,599.49 637.65,586.90 637.22,586.64 C636.79,586.37 633.53,586.75 629.97,587.48 C626.41,588.21 620.91,589.33 617.75,589.98 C611.87,591.17 610.11,593.27 613.97,594.49 C615.06,594.84 616.86,596.28 617.97,597.69 C619.86,600.09 620.00,601.69 620.00,621.00 C620.00,640.64 619.89,641.87 617.87,644.44 C616.70,645.93 614.67,647.55 613.37,648.05 C611.95,648.59 611.00,649.77 611.00,650.98 C611.00,652.93 611.60,653.00 628.39,653.00 C644.03,653.00 645.85,652.82 646.46,651.25 ZM 631.09 577.45 C634.49,575.69 637.99,570.56 638.00,567.33 C638.00,564.27 633.49,559.27 630.05,558.51 C626.23,557.67 619.23,559.83 617.43,562.40 C614.22,566.98 616.65,574.59 622.20,577.33 C626.33,579.36 627.37,579.38 631.09,577.45 ZM 421.09 550.17 C447.28,541.66 469.70,537.00 484.42,537.01 C495.58,537.01 499.65,538.09 505.51,542.56 L 510.07 546.04 L 514.29 543.60 C528.12,535.57 560.28,538.03 599.38,550.09 C608.14,552.79 615.91,555.00 616.65,555.00 C617.62,555.00 618.00,553.45 618.00,549.58 C618.00,542.62 620.87,538.98 628.79,535.87 C633.70,533.95 636.87,533.58 651.50,533.23 C660.85,533.01 668.88,532.46 669.34,532.02 C669.81,531.58 669.67,530.24 669.03,529.06 C667.06,525.38 669.45,520.48 675.40,515.99 C682.45,510.67 692.19,506.35 712.75,499.44 C722.24,496.25 730.00,493.37 730.00,493.04 C730.00,492.71 724.94,491.37 718.75,490.05 C702.34,486.56 682.21,479.59 675.57,475.10 C670.19,471.47 668.58,465.64 671.43,460.14 C674.93,453.36 696.99,435.71 714.22,425.90 C718.46,423.48 721.95,421.16 721.97,420.75 C721.99,420.34 719.58,420.00 716.63,420.00 C710.42,420.00 703.51,417.83 700.39,414.90 C697.49,412.17 695.58,405.01 696.40,399.91 C697.33,394.09 700.10,389.18 705.39,384.00 C707.92,381.52 709.99,379.16 709.99,378.75 C710.00,378.34 708.69,378.00 707.09,378.00 C703.46,378.00 699.36,373.45 698.40,368.35 C696.14,356.28 703.60,327.75 712.07,316.06 C713.68,313.84 715.00,311.81 715.00,311.56 C715.00,311.31 709.04,314.13 701.75,317.83 C680.17,328.78 677.06,330.01 671.20,330.01 C668.29,330.00 664.56,329.31 662.92,328.46 C660.02,326.96 659.82,327.02 655.72,330.34 C645.88,338.34 631.87,340.99 626.35,335.91 C624.92,334.58 623.12,332.04 622.36,330.25 C621.60,328.46 620.63,327.00 620.20,327.00 C619.77,327.00 617.80,329.81 615.81,333.25 C605.12,351.75 586.43,375.10 578.30,380.13 C575.14,382.08 574.70,382.12 573.25,380.68 C570.82,378.25 570.57,369.34 572.55,355.96 C574.16,345.07 574.21,342.47 573.02,329.88 C571.72,315.93 572.06,300.55 573.99,287.04 C574.49,283.48 574.78,280.45 574.62,280.29 C574.47,280.14 571.74,281.42 568.55,283.14 C554.75,290.62 542.47,284.57 540.45,269.30 C539.85,264.84 539.37,263.98 536.86,262.94 C529.20,259.77 523.01,246.96 514.18,216.00 L 512.33 209.50 L 511.15 214.00 C505.05,237.32 497.38,253.79 489.33,260.85 C485.62,264.10 484.02,266.25 484.00,268.00 C483.89,277.65 475.06,287.02 466.10,286.98 C462.90,286.97 459.86,286.06 456.09,283.98 C453.11,282.34 450.52,281.14 450.34,281.32 C450.17,281.50 450.50,286.12 451.08,291.57 C453.03,309.79 453.24,317.50 452.16,331.05 C451.45,339.90 451.41,347.07 452.03,352.00 C454.22,369.34 454.35,375.42 452.61,378.79 C450.70,382.48 450.77,382.46 447.20,380.57 C440.45,377.01 420.46,352.59 411.88,337.43 C410.30,334.64 407.92,331.33 406.58,330.08 L 404.16 327.80 L 402.67 330.65 C399.69,336.39 396.69,338.20 390.10,338.27 C386.23,338.30 382.49,337.64 379.77,336.44 C374.70,334.20 365.40,328.45 364.50,326.99 C364.10,326.35 362.89,326.73 361.30,327.98 C354.99,332.94 338.88,328.08 315.07,314.04 C312.15,312.32 309.58,311.09 309.36,311.30 C309.15,311.52 309.79,312.78 310.80,314.10 C313.78,318.02 317.59,325.16 319.55,330.50 C320.56,333.25 321.93,336.40 322.60,337.50 C324.49,340.61 327.00,354.50 327.00,361.86 C327.00,370.45 324.90,374.70 319.26,377.50 L 315.02 379.61 L 319.06 383.44 C326.24,390.24 329.92,399.86 328.03,406.87 C325.76,415.33 318.39,420.00 307.32,420.00 C301.27,420.00 300.49,421.15 305.25,423.07 C313.81,426.52 338.89,443.76 347.65,452.21 C352.80,457.18 355.51,462.85 354.55,466.66 C353.48,470.93 346.58,476.57 338.13,480.10 C329.60,483.67 311.53,489.08 301.56,491.06 C297.95,491.78 295.00,492.72 295.00,493.14 C295.00,493.57 296.91,494.41 299.25,495.01 C308.01,497.24 332.78,506.38 340.27,510.14 C344.55,512.29 349.89,515.89 352.15,518.15 C356.16,522.16 356.24,522.38 355.70,527.63 L 355.14 533.00 L 368.82 533.01 C381.68,533.03 389.41,534.08 398.71,537.09 C403.06,538.50 406.20,543.74 405.98,549.24 C405.75,555.02 405.82,555.28 407.25,554.74 C407.94,554.48 414.16,552.42 421.09,550.17 ZM 566.00 722.00 C563.59,719.59 563.51,718.63 565.57,716.57 C567.44,714.71 571.12,714.52 572.80,716.20 C574.64,718.04 574.23,721.81 572.07,722.96 C569.32,724.44 568.27,724.27 566.00,722.00 ZM 595.57 733.43 C593.41,731.26 593.59,730.31 596.54,728.38 C601.12,725.38 606.54,730.06 602.80,733.80 C601.12,735.48 597.44,735.29 595.57,733.43 ZM 597.18 720.89 C595.53,720.26 594.95,719.36 595.18,717.76 C595.44,715.91 596.13,715.50 599.00,715.50 C601.84,715.50 602.56,715.91 602.81,717.68 C603.21,720.45 600.34,722.08 597.18,720.89 ZM 416.44 612.69 C415.78,610.98 417.56,603.76 419.62,599.77 C420.40,598.26 422.35,596.35 423.97,595.52 C431.38,591.68 438.12,595.47 440.00,604.52 C440.63,607.52 440.89,610.37 440.58,610.87 C440.28,611.36 436.53,612.06 432.26,612.41 C427.99,612.77 422.81,613.31 420.75,613.62 C417.99,614.03 416.86,613.79 416.44,612.69 ZM 670.33 612.42 C670.03,611.63 670.09,608.91 670.46,606.39 C671.46,599.74 676.09,594.97 682.21,594.28 C686.21,593.83 687.19,594.10 689.35,596.26 C692.01,598.92 694.33,605.70 693.81,609.33 C693.55,611.16 692.64,611.60 688.00,612.13 C672.98,613.87 670.90,613.90 670.33,612.42 ZM 337.31 603.75 C336.33,602.24 335.57,573.87 336.41,570.51 C337.45,566.34 339.71,565.00 345.67,565.00 C356.47,565.00 362.72,570.81 363.71,581.79 C364.61,591.63 360.87,598.99 352.91,603.04 C348.49,605.30 338.60,605.75 337.31,603.75 Z" fill="rgb(254,254,254)"/>
</g>
</svg>